<svg xmlns="http://www.w3.org/2000/svg" xmlns:xlink="http://www.w3.org/1999/xlink" width="150" height="150" fill="none" xmlns:v="https://vecta.io/nano"><style><![CDATA[.B{fill:#e11833}.C{fill:#fff0ee}.D{fill:#eed811}.E{fill:#5648ed}.F{fill:#000}.G{fill:#f9e8dd}.H{fill:#fff}.I{fill:#abf131}.J{fill:#fff0be}]]></style><mask id="A" maskUnits="userSpaceOnUse" x="0" y="0" width="150" height="150" mask-type="alpha"><circle cx="75" cy="75" r="75" fill="#bfccdb"/></mask><g mask="url(#A)"><circle cx="75" cy="75" r="75" fill="#c7c2d7"/><path d="M.469 0H0v.469h.469V0z" fill="#d5d7e1"/><path d="M107.812 98.438H42.188v4.688h65.625v-4.687z" class="D"/><path d="M107.812 103.125H42.188v4.687h65.625v-4.687z" class="D"/><path d="M107.812 107.812H42.188v4.688h65.625v-4.688z" class="D"/><path d="M107.812 112.5H42.188v4.688h65.625V112.5z" class="D"/><use xlink:href="#C" class="D"/><path d="M107.812 117.188H56.25v4.687h51.562v-4.687z" class="D"/><use xlink:href="#C" y="4.687" class="D"/><path d="M107.812 121.875H56.25v4.687h51.562v-4.687zm-56.249 4.687h-9.375v4.688h9.375v-4.688z" class="D"/><path d="M107.812 126.562H56.25v4.688h51.562v-4.688zm-56.249 4.688h-9.375v4.688h9.375v-4.688z" class="D"/><path d="M107.812 131.25H56.25v4.688h51.562v-4.688z" class="D"/><use xlink:href="#C" y="18.75" class="D"/><path d="M107.812 135.938H56.25v4.687h51.562v-4.687z" class="D"/><use xlink:href="#C" y="23.437" class="D"/><path d="M107.812 140.625H56.25v4.687h51.562v-4.687zm-56.249 4.687h-9.375V150h9.375v-4.688z" class="D"/><path d="M107.812 145.312H56.25V150h51.562v-4.688z" class="D"/><path d="M65.625 107.812h-4.687v4.688h4.688v-4.688zm9.375 0h-4.687v4.688H75v-4.688z" class="I"/><path d="M89.063 107.812h-9.375v4.688h9.375v-4.688z" class="J"/><path d="M70.313 112.5h-4.687v4.688h4.688V112.5z" class="I"/><path d="M89.063 112.5h-9.375v4.688h9.375V112.5z" class="J"/><path d="M70.313 117.188h-4.687v4.687h4.688v-4.687z" class="I"/><use xlink:href="#C" x="37.5" class="J"/><path d="M65.625 126.562h-4.687v4.688h4.688v-4.688z" class="J"/><path d="M84.375 126.562H75v4.688h9.375v-4.688z" class="I"/><path d="M65.625 131.25h-4.687v4.688h4.688v-4.688z" class="J"/><path d="M84.375 131.25H75v4.688h9.375v-4.688z" class="I"/><use xlink:href="#C" x="18.75" y="18.75" class="J"/><path d="M84.375 135.938H75v4.687h9.375v-4.687z" class="I"/><path d="M93.75 9.375h-37.5v4.688h37.5V9.375z" class="B"/><path d="M79.688 14.063h-37.5v4.688h37.5v-4.687z" class="B"/><use xlink:href="#D" class="C"/><path d="M107.812 14.063H89.063v4.688h18.749v-4.687zM46.875 18.75H32.813v4.688h14.063V18.75z" class="B"/><path d="M51.563 18.75h-4.687v4.688h4.688V18.75z" class="C"/><path d="M70.313 18.75h-18.75v4.688h18.75V18.75z" class="B"/><path d="M79.688 18.75h-9.375v4.688h9.375V18.75z" class="C"/><path d="M98.438 18.75h-18.75v4.688h18.75V18.75z" class="B"/><path d="M107.812 18.75h-9.374v4.688h9.374V18.75z" class="C"/><path d="M117.188 18.75h-9.376v4.688h9.376V18.75zm-51.563 4.688h-37.5v4.688h37.5v-4.687z" class="B"/><path d="M84.375 23.438h-18.75v4.688h18.75v-4.687z" class="C"/><path d="M107.812 23.438H84.375v4.688h23.437v-4.687z" class="B"/><path d="M112.5 23.438h-4.688v4.688h4.688v-4.687z" class="C"/><path d="M121.875 23.438H112.5v4.688h9.375v-4.687zm-51.562 4.687H23.438v4.688h46.875v-4.687z" class="B"/><use xlink:href="#D" x="-9.375" y="14.062" class="C"/><path d="M126.562 28.125H79.688v4.688h46.875v-4.687zM37.5 32.813H23.438V37.5H37.5v-4.687z" class="B"/><path d="M46.875 32.813H37.5V37.5h9.375v-4.687z" class="C"/><path d="M103.125 32.813h-56.25V37.5h56.25v-4.687z" class="B"/><path d="M117.188 32.813h-14.063V37.5h14.063v-4.687z" class="C"/><path d="M126.562 32.813h-9.374V37.5h9.374v-4.687zM32.813 37.5H18.75v4.688h14.063V37.5z" class="B"/><path d="M51.563 37.5h-18.75v4.688h18.75V37.5z" class="C"/><path d="M79.688 37.5H51.563v4.688h28.125V37.5z" class="B"/><path d="M89.063 37.5h-9.375v4.688h9.375V37.5z" class="C"/><path d="M98.438 37.5h-9.375v4.688h9.375V37.5z" class="B"/><path d="M121.875 37.5H98.438v4.688h23.438V37.5z" class="C"/><path d="M131.25 37.5h-9.375v4.688h9.375V37.5zM23.438 42.188H18.75v4.688h4.688v-4.687z" class="B"/><path d="M28.125 42.188h-4.687v4.688h4.688v-4.687z" class="C"/><path d="M37.5 42.188h-9.375v4.688H37.5v-4.687z" class="B"/><path d="M46.875 42.188H37.5v4.688h9.375v-4.687z" class="C"/><path d="M60.938 42.188H46.875v4.688h14.063v-4.687z" class="B"/><path d="M65.625 42.188h-4.687v4.688h4.688v-4.687z" class="C"/><path d="M79.688 42.188H65.625v4.688h14.063v-4.687z" class="B"/><use xlink:href="#D" y="28.125" class="C"/><use xlink:href="#D" x="9.375" y="28.125" class="B"/><path d="M121.875 42.188H98.438v4.688h23.438v-4.687z" class="C"/><use xlink:href="#D" x="42.187" y="28.125" class="B"/><path d="M23.438 46.875H18.75v4.688h4.688v-4.687z" class="B"/><path d="M28.125 46.875h-4.687v4.688h4.688v-4.687z" class="C"/><path d="M103.125 46.875h-75v4.688h75v-4.687z" class="B"/><path d="M117.188 46.875h-14.063v4.688h14.063v-4.687z" class="C"/><path d="M131.25 46.875h-14.062v4.688h14.062v-4.687z" class="B"/><path d="M131.25 51.563H18.75v4.688h112.5v-4.687z" class="B"/><path d="M126.562 56.25H23.438v4.688h103.125V56.25z" class="B"/><path d="M117.188 60.938H32.813v4.688h84.376v-4.687z" class="B"/><path d="M107.812 65.625H42.188v4.688h65.625v-4.687z" class="G"/><path d="M107.812 70.313H42.188V75h65.625v-4.687z" class="G"/><path d="M107.812 75H42.188v4.688h65.625V75z" class="G"/><path d="M107.812 79.688H42.188v4.688h65.625v-4.687z" class="G"/><path d="M107.812 84.375H42.188v4.688h65.625v-4.687z" class="G"/><use xlink:href="#D" x="-37.5" y="75" class="G"/><path d="M70.313 89.063h-18.75v4.688h18.75v-4.687z" class="B"/><path d="M107.812 89.063H70.313v4.688h37.5v-4.687zM51.563 93.75h-9.375v4.688h9.375V93.75z" class="G"/><path d="M56.25 93.75h-4.687v4.688h4.688V93.75z" class="B"/><path d="M65.625 93.75H56.25v4.688h9.375V93.75z" class="F"/><path d="M70.313 93.75h-4.687v4.688h4.688V93.75z" class="B"/><path d="M107.812 93.75H70.313v4.688h37.5V93.75z" class="G"/><path d="M70.313 98.438h-18.75v4.688h18.75v-4.687z" class="B"/><path d="M75 51.563H46.875v4.688H75v-4.687zm32.812 0H79.688v4.688h28.124v-4.687z" class="E"/><path d="M51.563 56.25h-4.687v4.688h4.688V56.25z" class="E"/><path d="M60.938 56.25h-9.375v4.688h9.375V56.25z" class="H"/><path d="M70.313 56.25h-9.375v4.688h9.375V56.25z" class="F"/><path d="M75 56.25h-4.687v4.688H75V56.25zm9.375 0h-4.687v4.688h4.688V56.25z" class="E"/><path d="M93.75 56.25h-9.375v4.688h9.375V56.25z" class="H"/><path d="M103.125 56.25H93.75v4.688h9.375V56.25z" class="F"/><path d="M107.812 56.25h-4.687v4.688h4.687V56.25zm-56.249 4.688h-18.75v4.688h18.75v-4.687z" class="E"/><use xlink:href="#D" x="-28.125" y="46.875" class="H"/><use xlink:href="#D" x="-18.75" y="46.875" class="F"/><path d="M84.375 60.938H70.313v4.688h14.063v-4.687z" class="E"/><use xlink:href="#D" x="4.687" y="46.875" class="H"/><path d="M103.125 60.938H93.75v4.688h9.375v-4.687z" class="F"/><path d="M107.812 60.938h-4.687v4.688h4.687v-4.687zM37.5 65.625h-4.687v4.688H37.5v-4.687zm14.063 0h-4.687v4.688h4.688v-4.687z" class="E"/><use xlink:href="#D" x="-28.125" y="51.562" class="H"/><use xlink:href="#D" x="-18.75" y="51.562" class="F"/><path d="M75 65.625h-4.687v4.688H75v-4.687zm9.375 0h-4.687v4.688h4.688v-4.687z" class="E"/><use xlink:href="#D" x="4.687" y="51.562" class="H"/><path d="M103.125 65.625H93.75v4.688h9.375v-4.687z" class="F"/><path d="M107.812 65.625h-4.687v4.688h4.687v-4.687zM37.5 70.313h-4.687V75H37.5v-4.687zm14.063 0h-4.687V75h4.688v-4.687z" class="E"/><path d="M60.938 70.313h-9.375V75h9.375v-4.687z" class="H"/><path d="M70.313 70.313h-9.375V75h9.375v-4.687z" class="F"/><path d="M75 70.313h-4.687V75H75v-4.687zm9.375 0h-4.687V75h4.688v-4.687z" class="E"/><path d="M93.75 70.313h-9.375V75h9.375v-4.687z" class="H"/><path d="M103.125 70.313H93.75V75h9.375v-4.687z" class="F"/><path d="M107.812 70.313h-4.687V75h4.687v-4.687zM75 75H46.875v4.688H75V75z" class="E"/><path d="M107.812 75H79.688v4.688h28.124V75z" class="E"/></g><defs ><path id="C" d="M51.563 117.188h-9.375v4.687h9.375v-4.687z"/><path id="D" d="M89.063 14.063h-9.375v4.688h9.375v-4.687z"/></defs></svg>